<svg width="478" height="684" viewBox="0 0 478 684" fill="none" xmlns="http://www.w3.org/2000/svg">
<path d="M437.88 441.935L460.67 454.335C459.73 453.825 458.75 453.355 457.73 452.925L434.94 440.525C435.96 440.955 436.94 441.425 437.88 441.935Z" fill="#469E69"/>
<path d="M457.73 452.935L434.94 440.535C435.53 440.785 436.11 441.045 436.68 441.315L459.47 453.715C458.9 453.445 458.33 453.175 457.73 452.935Z" fill="#469E69" stroke="white" stroke-miterlimit="10"/>
<path d="M459.47 453.715L436.68 441.315C437.09 441.515 437.49 441.725 437.88 441.935L460.67 454.335C460.28 454.125 459.88 453.915 459.47 453.715Z" fill="#469E69" stroke="white" stroke-miterlimit="10"/>
<path d="M437.88 441.935L460.67 454.335C459.73 453.825 458.75 453.355 457.73 452.925L434.94 440.525C435.96 440.955 436.94 441.425 437.88 441.935Z" stroke="white" stroke-miterlimit="10"/>
<path d="M201.96 678.935L179.17 666.535C169.25 661.135 162.32 650.205 162.35 635.775L185.14 648.175C185.11 662.605 192.03 673.535 201.96 678.935Z" fill="#469E69"/>
<path d="M201.96 678.935L179.17 666.535C169.25 661.135 162.32 650.205 162.35 635.775L185.14 648.175C185.11 662.605 192.03 673.535 201.96 678.935Z" fill="#469E69" stroke="white" stroke-miterlimit="10"/>
<path d="M201.96 678.935L179.17 666.535C169.25 661.135 162.32 650.205 162.35 635.775L185.14 648.175C185.11 662.605 192.03 673.535 201.96 678.935Z" stroke="white" stroke-miterlimit="10"/>
<path d="M238.66 361.635L215.87 349.235L434.94 440.535L457.73 452.935L238.66 361.635Z" fill="#469E69" stroke="white" stroke-miterlimit="10"/>
<path d="M222.03 359.545L199.24 347.145C204.77 346.365 210.44 346.965 215.87 349.225L238.66 361.625C233.23 359.365 227.56 358.775 222.03 359.545Z" fill="#469E69"/>
<path d="M222.03 359.545L199.24 347.145C203.36 346.565 207.57 346.745 211.69 347.815L234.48 360.215C230.36 359.155 226.15 358.975 222.03 359.545Z" fill="#469E69" stroke="white" stroke-miterlimit="10"/>
<path d="M234.48 360.225L211.69 347.825C213.09 348.185 214.49 348.655 215.87 349.235L238.66 361.635C237.28 361.055 235.88 360.585 234.48 360.225Z" fill="#469E69" stroke="white" stroke-miterlimit="10"/>
<path d="M222.03 359.545L199.24 347.145C204.77 346.365 210.44 346.965 215.87 349.225L238.66 361.625C233.23 359.365 227.56 358.775 222.03 359.545Z" stroke="white" stroke-miterlimit="10"/>
<path d="M185.14 648.175L162.34 635.775L162.8 391.545L185.59 403.935L185.14 648.175Z" fill="#469E69" stroke="white" stroke-miterlimit="10"/>
<path d="M222.03 359.545C227.56 358.765 233.23 359.365 238.66 361.625L457.73 452.925C483.94 463.845 483.86 504.335 457.6 522.635L238.07 675.575C232.63 679.365 226.95 681.555 221.42 682.335C202.37 685.015 185.08 670.935 185.13 648.165L185.58 403.925C185.63 381.165 202.98 362.225 222.03 359.545Z" fill="#469E69" stroke="white" stroke-miterlimit="10"/>
<path d="M185.59 403.935L162.8 391.535C162.84 368.765 180.19 349.825 199.24 347.145L222.03 359.545C202.98 362.225 185.63 381.165 185.59 403.935Z" fill="#469E69"/>
<path d="M185.59 403.935L162.8 391.535C162.81 386.095 163.81 380.875 165.58 376.045L188.37 388.445C186.6 393.285 185.6 398.505 185.59 403.935Z" fill="#469E69" stroke="white" stroke-miterlimit="10"/>
<path d="M188.37 388.455L165.58 376.055C166.34 373.965 167.25 371.955 168.29 370.025L191.08 382.425C190.04 384.355 189.13 386.365 188.37 388.455Z" fill="#469E69" stroke="white" stroke-miterlimit="10"/>
<path d="M191.08 382.425L168.29 370.025C169.18 368.375 170.16 366.785 171.22 365.275L194.01 377.675C192.95 379.185 191.97 380.775 191.08 382.425Z" fill="#469E69" stroke="white" stroke-miterlimit="10"/>
<path d="M194.01 377.665L171.22 365.265C172.24 363.815 173.33 362.425 174.49 361.115L197.28 373.515C196.12 374.835 195.03 376.215 194.01 377.665Z" fill="#469E69" stroke="white" stroke-miterlimit="10"/>
<path d="M197.28 373.515L174.49 361.115C175.67 359.775 176.92 358.515 178.22 357.345L201.01 369.745C199.71 370.925 198.46 372.185 197.28 373.515Z" fill="#469E69" stroke="white" stroke-miterlimit="10"/>
<path d="M201.01 369.745L178.22 357.345C179.65 356.055 181.15 354.875 182.71 353.795L205.5 366.195C203.94 367.275 202.44 368.465 201.01 369.745Z" fill="#469E69" stroke="white" stroke-miterlimit="10"/>
<path d="M205.5 366.195L182.71 353.795C184.63 352.465 186.64 351.305 188.71 350.335L211.5 362.735C209.43 363.705 207.42 364.865 205.5 366.195Z" fill="#469E69" stroke="white" stroke-miterlimit="10"/>
<path d="M211.5 362.735L188.71 350.335C192.09 348.745 195.63 347.655 199.24 347.145L222.03 359.545C218.42 360.055 214.88 361.145 211.5 362.735Z" fill="#469E69" stroke="white" stroke-miterlimit="10"/>
<path d="M185.59 403.935L162.8 391.535C162.84 368.765 180.19 349.825 199.24 347.145L222.03 359.545C202.98 362.225 185.63 381.165 185.59 403.935Z" stroke="white" stroke-miterlimit="10"/>
<path d="M393.26 177.855L416.05 190.255C414.8 189.575 413.32 189.295 411.74 189.515L388.95 177.115C390.53 176.895 392.01 177.175 393.26 177.855Z" fill="#469E69"/>
<path d="M411.74 189.515L388.95 177.115C389.93 176.975 390.87 177.035 391.74 177.255L414.53 189.655C413.66 189.435 412.72 189.375 411.74 189.515Z" fill="#469E69" stroke="white" stroke-miterlimit="10"/>
<path d="M414.53 189.655L391.74 177.255C392.19 177.365 392.61 177.525 393.02 177.725L415.81 190.125C415.4 189.925 414.98 189.775 414.53 189.655Z" fill="#469E69" stroke="white" stroke-miterlimit="10"/>
<path d="M415.81 190.125L393.02 177.725C393.1 177.765 393.19 177.805 393.27 177.855L416.06 190.255C415.97 190.215 415.89 190.165 415.81 190.125Z" fill="#469E69" stroke="white" stroke-miterlimit="10"/>
<path d="M393.26 177.855L416.05 190.255C414.8 189.575 413.32 189.295 411.74 189.515L388.95 177.115C390.53 176.895 392.01 177.175 393.26 177.855Z" stroke="white" stroke-miterlimit="10"/>
<path d="M393.59 2.82535L416.38 15.2253C415.13 14.5453 413.65 14.2654 412.07 14.4854L389.28 2.08533C390.86 1.85533 392.34 2.14535 393.59 2.82535Z" fill="#469E69"/>
<path d="M412.07 14.4753L389.28 2.07532C390.26 1.93532 391.2 1.9953 392.07 2.2153L414.86 14.6153C413.99 14.3953 413.05 14.3453 412.07 14.4753Z" fill="#469E69" stroke="white" stroke-miterlimit="10"/>
<path d="M414.86 14.6253L392.06 2.22534C392.51 2.33534 392.93 2.49534 393.34 2.69534L416.13 15.0953C415.73 14.8953 415.3 14.7353 414.86 14.6253Z" fill="#469E69" stroke="white" stroke-miterlimit="10"/>
<path d="M416.13 15.0953L393.34 2.69531C393.42 2.73531 393.51 2.77532 393.59 2.82532L416.38 15.2253C416.3 15.1753 416.22 15.1353 416.13 15.0953Z" fill="#469E69" stroke="white" stroke-miterlimit="10"/>
<path d="M393.59 2.82535L416.38 15.2253C415.13 14.5453 413.65 14.2654 412.07 14.4854L389.28 2.08533C390.86 1.85533 392.34 2.14535 393.59 2.82535Z" stroke="white" stroke-miterlimit="10"/>
<path d="M27.54 606.675L4.75005 594.275C2.49005 593.045 0.99005 590.525 1.00005 587.425L23.79 599.825C23.79 602.935 25.28 605.445 27.54 606.675Z" fill="#469E69"/>
<path d="M27.54 606.675L4.75005 594.275C2.49005 593.045 0.99005 590.525 1.00005 587.425L23.79 599.825C23.79 602.935 25.28 605.445 27.54 606.675Z" fill="#469E69" stroke="white" stroke-miterlimit="10"/>
<path d="M27.54 606.675L4.75005 594.275C2.49005 593.045 0.99005 590.525 1.00005 587.425L23.79 599.825C23.79 602.935 25.28 605.445 27.54 606.675Z" stroke="white" stroke-miterlimit="10"/>
<path d="M133.42 228.625L110.63 216.235L388.95 177.115L411.74 189.515L133.42 228.625Z" fill="#469E69" stroke="white" stroke-miterlimit="10"/>
<path d="M129.09 227.885L106.3 215.485C107.55 216.165 109.03 216.455 110.62 216.225L133.41 228.625C131.83 228.855 130.34 228.565 129.09 227.885Z" fill="#469E69"/>
<path d="M129.09 227.885L106.3 215.485C106.38 215.525 106.46 215.575 106.55 215.615L129.34 228.015C129.26 227.975 129.18 227.935 129.09 227.885Z" fill="#469E69" stroke="white" stroke-miterlimit="10"/>
<path d="M129.34 228.015L106.55 215.615C106.96 215.815 107.38 215.975 107.83 216.085L130.62 228.485C130.17 228.375 129.75 228.215 129.34 228.015Z" fill="#469E69" stroke="white" stroke-miterlimit="10"/>
<path d="M130.62 228.485L107.83 216.085C108.7 216.305 109.64 216.365 110.63 216.225L133.42 228.625C132.43 228.765 131.49 228.715 130.62 228.485Z" fill="#469E69" stroke="white" stroke-miterlimit="10"/>
<path d="M129.09 227.885L106.3 215.485C107.55 216.165 109.03 216.455 110.62 216.225L133.41 228.625C131.83 228.855 130.34 228.565 129.09 227.885Z" stroke="white" stroke-miterlimit="10"/>
<path d="M125.65 54.7353L102.86 42.3353L389.27 2.07532L412.07 14.4753L125.65 54.7353Z" fill="#469E69" stroke="white" stroke-miterlimit="10"/>
<path d="M23.79 599.825L1.00006 587.425L1.81006 151.185L24.6 163.585L23.79 599.825Z" fill="#469E69" stroke="white" stroke-miterlimit="10"/>
<path d="M32.8701 67.7753L10.0801 55.3753L102.86 42.3353L125.65 54.7354L32.8701 67.7753Z" fill="#469E69" stroke="white" stroke-miterlimit="10"/>
<path d="M24.6 163.585L1.81006 151.185L1.97006 65.2453L24.7601 77.6453L24.6 163.585Z" fill="#469E69" stroke="white" stroke-miterlimit="10"/>
<path d="M24.7601 77.6453L1.97009 65.2453C1.98009 60.4253 5.61011 56.0053 10.0801 55.3753L32.8701 67.7753C28.4001 68.3953 24.7701 72.8153 24.7601 77.6453Z" fill="#469E69"/>
<path d="M24.7601 77.6453L1.97009 65.2453C1.97009 64.0553 2.19009 62.8953 2.59009 61.8053L25.3801 74.2053C24.9901 75.2853 24.7601 76.4553 24.7601 77.6453Z" fill="#469E69" stroke="white" stroke-miterlimit="10"/>
<path d="M25.3901 74.2053L2.6001 61.8053C2.7701 61.3353 2.98011 60.8853 3.21011 60.4453L26.0001 72.8453C25.7601 73.2753 25.5601 73.7353 25.3901 74.2053Z" fill="#469E69" stroke="white" stroke-miterlimit="10"/>
<path d="M26.0001 72.8353L3.21008 60.4353C3.41008 60.0653 3.63009 59.7053 3.87009 59.3653L26.6601 71.7653C26.4201 72.1153 26.2001 72.4653 26.0001 72.8353Z" fill="#469E69" stroke="white" stroke-miterlimit="10"/>
<path d="M26.6601 71.7753L3.87012 59.3753C4.10012 59.0553 4.3401 58.7453 4.6001 58.4553L27.3901 70.8553C27.1301 71.1453 26.8801 71.4453 26.6601 71.7753Z" fill="#469E69" stroke="white" stroke-miterlimit="10"/>
<path d="M27.3801 70.8453L4.59009 58.4453C4.85009 58.1553 5.13007 57.8753 5.42007 57.6153L28.2101 70.0153C27.9201 70.2753 27.6401 70.5553 27.3801 70.8453Z" fill="#469E69" stroke="white" stroke-miterlimit="10"/>
<path d="M28.21 70.0153L5.42004 57.6153C5.73004 57.3353 6.06002 57.0753 6.40002 56.8453L29.1901 69.2453C28.8501 69.4753 28.52 69.7353 28.21 70.0153Z" fill="#469E69" stroke="white" stroke-miterlimit="10"/>
<path d="M29.1901 69.2453L6.40002 56.8453C6.82002 56.5553 7.26002 56.3053 7.71002 56.0853L30.5001 68.4853C30.0501 68.6953 29.6101 68.9553 29.1901 69.2453Z" fill="#469E69" stroke="white" stroke-miterlimit="10"/>
<path d="M30.5001 68.4853L7.71008 56.0853C8.46008 55.7353 9.25014 55.4853 10.0801 55.3753L32.8701 67.7753C32.0501 67.8853 31.2501 68.1353 30.5001 68.4853Z" fill="#469E69" stroke="white" stroke-miterlimit="10"/>
<path d="M24.7601 77.6453L1.97009 65.2453C1.98009 60.4253 5.61011 56.0053 10.0801 55.3753L32.8701 67.7753C28.4001 68.3953 24.7701 72.8153 24.7601 77.6453Z" stroke="white" stroke-miterlimit="10"/>
<path d="M412.07 14.4753C416.53 13.8453 420.15 17.2453 420.14 22.0753L420 99.2953C419.99 104.115 416.36 108.525 411.9 109.155L133.58 148.275C129.11 148.905 125.48 153.315 125.47 158.145L125.35 221.055C125.34 225.875 128.95 229.265 133.42 228.645L411.74 189.515C416.2 188.885 419.82 192.285 419.81 197.115L419.67 274.335C419.66 279.155 416.03 283.565 411.57 284.195L133.24 323.305C128.77 323.935 125.14 328.345 125.13 333.175L124.66 585.655C124.65 590.475 121.02 594.895 116.56 595.525L31.8601 607.425C27.3901 608.055 23.7801 604.655 23.7901 599.825L24.6001 163.575L24.7601 77.6353C24.7701 72.8153 28.4001 68.3953 32.8701 67.7653L125.65 54.7253L412.07 14.4753Z" fill="#469E69" stroke="white" stroke-miterlimit="10"/>
</svg>
